<?xml version="1.0" encoding="UTF-8"?>
<svg width="512" height="512" viewBox="0 0 512 512" xmlns="http://www.w3.org/2000/svg">
  <defs>
    <linearGradient id="glassGrad" x1="0%" y1="0%" x2="0%" y2="100%">
      <stop offset="0%" stop-color="#3be9db"/>
      <stop offset="100%" stop-color="#10b8ab"/>
    </linearGradient>
    <linearGradient id="sandGrad" x1="0%" y1="0%" x2="0%" y2="100%">
      <stop offset="0%" stop-color="#f5de8a"/>
      <stop offset="100%" stop-color="#e1c56a"/>
    </linearGradient>
    <filter id="softShadow" x="-20%" y="-20%" width="140%" height="140%">
      <feDropShadow dx="0" dy="2" stdDeviation="2" flood-color="#000000" flood-opacity="0.25"/>
    </filter>
  </defs>

  <!-- Top cap -->
  <rect x="80" y="52" width="352" height="80" rx="40"
        fill="#d9bb73" stroke="#0e0f10" stroke-width="22" filter="url(#softShadow)"/>

  <!-- Bottom cap -->
  <rect x="80" y="380" width="352" height="80" rx="40"
        fill="#d9bb73" stroke="#0e0f10" stroke-width="22" filter="url(#softShadow)"/>

  <!-- Hourglass outline path -->
  <path d="
    M140,128
    C 220,128 292,128 372,128
    C 332,180 292,220 256,256
    C 220,292 180,332 140,384
    C 220,384 292,384 372,384
    C 332,332 292,292 256,256
    C 220,220 180,180 140,128 Z"
    fill="url(#glassGrad)" stroke="#0e0f10" stroke-width="22" />

  <!-- Inner rim to make the glass edge brighter -->
  <path d="
    M152,140
    C 220,140 284,140 360,140
    C 326,184 298,212 256,254
    C 214,296 186,324 152,368
    C 220,368 284,368 360,368
    C 326,324 298,296 256,254
    C 214,212 186,184 152,140 Z"
    fill="none" stroke="#27d3c6" stroke-opacity="0.25" stroke-width="12"/>

  <!-- Liquid/sand fill (full state shows upper bulb glow + lower bulb full) -->
  <g opacity="0.9">
    <!-- Lower bulb fill -->
    <path d="
      M156,368
      C 214,300 230,288 256,262
      C 282,288 298,300 356,368
      Z"
      fill="url(#sandGrad)" opacity="0.0"/> <!-- kept 0.0 to keep the cyan look "full energy" -->
    <!-- Cyan glow circle -->
    <ellipse cx="256" cy="310" rx="80" ry="36" fill="#3be9db" opacity="0.18"/>
  </g>

  <!-- Highlights -->
  <rect x="190" y="160" width="134" height="16" rx="8" fill="#ffffff" opacity="0.55"/>
  <circle cx="214" cy="192" r="6" fill="#ffffff" opacity="0.65"/>
  <circle cx="256" cy="206" r="8" fill="#ffffff" opacity="0.35"/>
  <path d="M206,226 C230,246 282,246 306,226" fill="none" stroke="#ffffff" stroke-width="12" opacity="0.25" stroke-linecap="round"/>

</svg>
