<?xml version="1.0" encoding="UTF-8"?>
<svg width="512" height="512" viewBox="0 0 256 256" fill="none" xmlns="http://www.w3.org/2000/svg">
  <defs>
    <linearGradient id="glassGrad" x1="128" y1="48" x2="128" y2="208" gradientUnits="userSpaceOnUse">
      <stop offset="0" stop-color="#49E6E6"/>
      <stop offset="1" stop-color="#12B3B3"/>
    </linearGradient>
    <radialGradient id="glow" cx="0" cy="0" r="1" gradientUnits="userSpaceOnUse"
      gradientTransform="translate(128 136) rotate(90) scale(70 90)">
      <stop offset="0" stop-color="#65F0F0" stop-opacity="0.6"/>
      <stop offset="1" stop-color="#65F0F0" stop-opacity="0"/>
    </radialGradient>
    <filter id="innerShadow" x="-50%" y="-50%" width="200%" height="200%">
      <feOffset dx="0" dy="2" />
      <feGaussianBlur stdDeviation="2.5" result="blur"/>
      <feComposite in2="SourceAlpha" operator="arithmetic" k2="-1" k3="1" result="innerShadow"/>
      <feColorMatrix in="innerShadow" type="matrix"
        values="0 0 0 0 0
                0 0 0 0 0
                0 0 0 0 0
                0 0 0 0.35 0"/>
      <feComposite in2="SourceGraphic" operator="over"/>
    </filter>
  </defs>

  <!-- Outer silhouette double stroke for clean edge -->
  <g>
    <path d="M48 28 H208 a16 16 0 0 1 16 16 v8 a28 28 0 0 1 -12 23 L160 112 l52 37
             a28 28 0 0 1 12 23 v8 a16 16 0 0 1 -16 16 H48 a16 16 0 0 1 -16 -16 v-8
             a28 28 0 0 1 12 -23 l52 -37 -52 -37 a28 28 0 0 1 -12 -23 v-8 a16 16 0 0 1 16 -16 z"
          fill="white" stroke="#111111" stroke-width="10" stroke-linejoin="round"/>
  </g>

  <!-- Top & bottom caps -->
  <rect x="64" y="36" width="128" height="26" rx="12" fill="#E0BE7A" stroke="#9C7D37" stroke-width="2"/>
  <rect x="64" y="194" width="128" height="26" rx="12" fill="#E0BE7A" stroke="#9C7D37" stroke-width="2"/>

  <!-- Glass belly -->
  <path d="M84 64 h88 a8 8 0 0 1 8 8 v0
           c0 24 -40 36 -40 56 s40 32 40 56 v0 a8 8 0 0 1 -8 8 h-88 a8 8 0 0 1 -8 -8 v0
           c0 -24 40 -36 40 -56 s-40 -32 -40 -56 v0 a8 8 0 0 1 8 -8 z"
        fill="url(#glassGrad)" stroke="#0A7D7D" stroke-width="4" filter="url(#innerShadow)"/>

  <!-- Inner glow -->
  <ellipse cx="128" cy="140" rx="66" ry="40" fill="url(#glow)"/>

  <!-- Highlights -->
  <path d="M96 76 c24 0 56 0 64 0" stroke="white" stroke-opacity="0.55" stroke-width="6" stroke-linecap="round"/>
  <circle cx="110" cy="92" r="3" fill="#BFFBFF" opacity="0.9"/>
  <circle cx="150" cy="92" r="3" fill="#BFFBFF" opacity="0.7"/>
  <path d="M103 164 q25 16 50 0" stroke="#7EF7F7" stroke-opacity="0.45" stroke-width="8" stroke-linecap="round"/>
</svg>
