<?xml version="1.0" encoding="UTF-8"?>
<svg width="512" height="512" viewBox="0 0 512 512" xmlns="http://www.w3.org/2000/svg">
  <defs>
    <linearGradient id="glassGrad2" x1="0%" y1="0%" x2="0%" y2="100%">
      <stop offset="0%" stop-color="#d7f7f5"/>
      <stop offset="100%" stop-color="#a9e7e2"/>
    </linearGradient>
    <filter id="softShadow2" x="-20%" y="-20%" width="140%" height="140%">
      <feDropShadow dx="0" dy="2" stdDeviation="2" flood-color="#000000" flood-opacity="0.25"/>
    </filter>
  </defs>

  <!-- Top cap -->
  <rect x="80" y="52" width="352" height="80" rx="40"
        fill="#d9bb73" stroke="#0e0f10" stroke-width="22" filter="url(#softShadow2)"/>

  <!-- Bottom cap -->
  <rect x="80" y="380" width="352" height="80" rx="40"
        fill="#d9bb73" stroke="#0e0f10" stroke-width="22" filter="url(#softShadow2)"/>

  <!-- Hourglass outline path (same shape) -->
  <path d="
    M140,128
    C 220,128 292,128 372,128
    C 332,180 292,220 256,256
    C 220,292 180,332 140,384
    C 220,384 292,384 372,384
    C 332,332 292,292 256,256
    C 220,220 180,180 140,128 Z"
    fill="url(#glassGrad2)" stroke="#0e0f10" stroke-width="22" />

  <!-- Dim glass edge -->
  <path d="
    M152,140
    C 220,140 284,140 360,140
    C 326,184 298,212 256,254
    C 214,296 186,324 152,368
    C 220,368 284,368 360,368
    C 326,324 298,296 256,254
    C 214,212 186,184 152,140 Z"
    fill="none" stroke="#7fd8cf" stroke-opacity="0.25" stroke-width="12"/>

  <!-- "Empty" hint: faint top glow and little sand residue at bottom -->
  <rect x="190" y="160" width="134" height="16" rx="8" fill="#ffffff" opacity="0.35"/>
  <ellipse cx="256" cy="392" rx="70" ry="14" fill="#c0c0c0" opacity="0.45"/>
</svg>
